<svg width="430" height="176" viewBox="0 0 430 176" fill="none" xmlns="http://www.w3.org/2000/svg">
<path d="M73.5988 12.6196L10.6546 42.6955L-13.6267 160.046L448.989 170.19L462.953 3.92972L425.69 0.415411L398.377 12.9247L374.141 9.26497L351.458 19.654L324.073 25.7516L312.73 9.95043L286.585 1.96808L263.88 10.4957L239.801 20.9003L216.539 21.16L204.043 27.0914L186.651 11.3577L161.901 3.35977L128.145 22.1466L110.862 16.1339L90.9257 22.562L73.5988 12.6196Z" fill="url(#paint0_linear_25_22)"/>
<path d="M43.6858 9.54026L-24.4465 38.2167L-52 152.518L445.967 167.462L463 5.29939L422.922 1.4624L393.365 13.3772L367.314 9.54026L342.767 19.4356L313.209 25.0901L301.186 9.54026L273.131 1.4624L248.584 9.54026L222.533 19.4356H197.484L183.958 25.0901L165.422 9.54026L138.871 1.4624L102.3 19.4356L83.7636 13.3772L62.2218 19.4356L43.6858 9.54026Z" fill="url(#paint1_linear_25_22)"/>
<defs>
<linearGradient id="paint0_linear_25_22" x1="223.778" y1="2.66912" x2="225.675" y2="172.682" gradientUnits="userSpaceOnUse">
<stop stop-color="#1AD892" stop-opacity="0.2"/>
<stop offset="1" stop-color="#C2F8E4" stop-opacity="0"/>
</linearGradient>
<linearGradient id="paint1_linear_25_22" x1="205.5" y1="1.4624" x2="205.5" y2="167.462" gradientUnits="userSpaceOnUse">
<stop stop-color="#1AD892" stop-opacity="0.26"/>
<stop offset="1" stop-opacity="0.34"/>
</linearGradient>
</defs>
</svg>
